<svg width="1388" height="196" viewBox="0 0 1388 196" fill="none" xmlns="http://www.w3.org/2000/svg">
<path d="M389.092 195.537C352.123 195.537 317.744 173.95 301.504 140.557C290.647 118.222 268.002 104.062 243.185 104.062C218.368 104.062 195.723 118.24 184.866 140.557C168.625 173.95 134.247 195.537 97.2776 195.537C43.6299 195.537 0 151.907 0 98.2776C0 44.6481 43.6299 1 97.2776 1C134.247 1 168.625 22.5868 184.866 55.9798C195.723 78.3148 218.368 92.4749 243.185 92.4749C268.002 92.4749 290.665 78.2966 301.504 55.9798C317.744 22.5868 352.123 1 389.092 1C442.722 1 486.37 44.6299 486.37 98.2776C486.37 151.925 442.722 195.537 389.092 195.537Z" fill="white"/>
<path d="M613.209 195.555C666.934 195.555 710.486 152.003 710.486 98.2776C710.486 44.5527 666.934 1 613.209 1C559.484 1 515.931 44.5527 515.931 98.2776C515.931 152.003 559.484 195.555 613.209 195.555Z" fill="white"/>
<path d="M932.943 40.4626C933.869 42.3152 934.323 44.1678 934.323 46.0205V157.002H964.832C968.518 157.002 970.371 158.855 970.371 162.56V190.31C970.371 194.015 968.518 195.868 964.832 195.868H862.168C858.463 195.868 856.63 194.015 856.63 190.31V162.54C856.63 158.835 858.483 156.982 862.168 156.982H892.678V40.4626H862.168C858.463 40.4626 856.63 38.6099 856.63 34.9243V7.17403C856.63 3.46874 858.483 1.61609 862.168 1.61609H889.918C893.624 1.61609 896.757 2.91688 899.359 5.49876L930.164 36.2842" fill="white"/>
<path d="M1093.61 195.021C1089.9 195.021 1088.05 193.168 1088.05 189.463V77.1214C1088.05 75.4461 1087.68 73.7511 1086.95 71.997C1086.2 70.2429 1085.29 68.8042 1084.17 67.7005L1060.05 43.5372C1057.44 40.9553 1054.31 39.6545 1050.61 39.6545C1046.9 39.6545 1045.05 41.5072 1045.05 45.2125V189.482C1045.05 193.188 1043.19 195.04 1039.51 195.04H1009C1005.29 195.04 1003.44 193.188 1003.44 189.482V6.36602C1003.44 2.66072 1005.29 0.808075 1009 0.808075H1068.64C1072.34 0.808075 1075.48 2.10887 1078.08 4.69075L1125.79 52.4063C1126.9 53.51 1127.82 54.9487 1128.57 56.7028C1129.3 58.4569 1129.68 60.1716 1129.68 61.8272V189.443C1129.68 193.148 1127.82 195.001 1124.14 195.001H1093.61V195.021ZM1153.27 0.808075C1156.97 0.808075 1160.11 2.10887 1162.71 4.69075L1210.43 52.4063C1213.01 55.0079 1214.31 58.1416 1214.31 61.8469V189.463C1214.31 193.168 1212.46 195.021 1208.77 195.021H1178.26C1174.56 195.021 1172.7 193.168 1172.7 189.463V77.1214C1172.7 75.4461 1172.47 73.7511 1172.01 71.997C1171.56 70.2429 1170.77 68.8042 1169.65 67.7005L1144.68 43.5569C1143.75 42.6306 1142.59 41.8422 1141.21 41.1918C1139.83 40.5414 1138.39 40.029 1136.91 39.6545C1133.21 39.1027 1131.37 37.25 1131.37 34.1163V6.36602C1131.37 2.66072 1133.23 0.808075 1136.91 0.808075H1153.27Z" fill="white"/>
<path d="M1300.52 78.501C1302.19 78.501 1303.89 78.2645 1305.64 77.8112C1307.39 77.3579 1308.83 76.6484 1309.94 75.722L1331.3 59.6395C1333.88 57.6094 1335.18 56.5057 1335.18 56.3087C1335.18 55.9342 1334.81 55.6583 1334.08 55.4809C1333.33 55.3035 1332.42 54.8305 1331.3 54.1012L1309.94 41.6057C1308.83 40.8765 1307.39 40.3641 1305.64 40.0881C1303.89 39.8122 1302.17 39.6742 1300.52 39.6742H1249.74C1246.04 39.6742 1244.21 37.8216 1244.21 34.136V6.36602C1244.21 2.66072 1246.06 0.808075 1249.74 0.808075H1310.78C1314.49 0.808075 1317.62 1.63585 1320.22 3.31112L1375.71 38.2749C1378.29 39.9305 1379.59 41.8817 1379.59 44.1088V62.6944C1379.59 64.3499 1379.21 66.1237 1378.48 67.9567C1377.74 69.8093 1376.83 71.189 1375.71 72.1153L1345.2 94.8792L1384.04 123.733C1385.15 124.66 1386.07 126.039 1386.82 127.892C1387.55 129.744 1387.92 131.499 1387.92 133.154V151.74C1387.92 153.967 1386.62 155.898 1384.04 157.574L1328.56 192.537C1325.96 194.213 1322.83 195.04 1319.12 195.04H1246.99C1243.28 195.04 1241.43 193.188 1241.43 189.482V161.732C1241.43 158.027 1243.28 156.174 1246.99 156.174H1308.85C1310.53 156.174 1312.22 156.036 1313.98 155.76C1315.73 155.484 1317.17 154.972 1318.27 154.243L1339.64 141.747C1340.74 141.018 1341.67 140.545 1342.42 140.368C1343.15 140.19 1343.52 139.914 1343.52 139.54C1343.52 139.165 1342.22 138.062 1339.64 136.209L1318.27 120.107C1317.17 119.18 1315.73 118.491 1313.98 118.018C1312.22 117.564 1310.51 117.328 1308.85 117.328H1285.56C1281.85 117.328 1280.02 115.475 1280.02 111.79V84.0589C1280.02 80.3536 1281.87 78.501 1285.56 78.501H1300.52Z" fill="white"/>
<path d="M937.791 35.2397C947.522 35.2397 955.411 27.351 955.411 17.6199C955.411 7.88868 947.522 0 937.791 0C928.06 0 920.171 7.88868 920.171 17.6199C920.171 27.351 928.06 35.2397 937.791 35.2397Z" fill="white"/>
</svg>
