<svg width="1440" height="558" viewBox="0 0 1440 558" fill="none" xmlns="http://www.w3.org/2000/svg">
<mask id="mask0_149_2641" style="mask-type:luminance" maskUnits="userSpaceOnUse" x="-227" y="0" width="1667" height="560">
<path d="M1440 0H-227V560H1440V0Z" fill="white"/>
</mask>
<g mask="url(#mask0_149_2641)">
<path d="M584.875 502.62L587.885 404.83" stroke="#BAB280" stroke-width="1.5"/>
<path d="M584.875 502.62L718.143 556.95" stroke="#BAB280" stroke-width="1.5"/>
<path d="M584.875 502.62L701.01 412.31" stroke="#BAB280" stroke-width="1.5"/>
<path d="M584.875 502.62L397.083 498.84" stroke="#BAB280" stroke-width="1.5"/>
<path d="M584.875 502.62L551.419 703.6" stroke="#BAB280" stroke-width="1.5"/>
<path d="M584.875 502.62L762.573 660.86" stroke="#BAB280" stroke-width="1.5"/>
<path d="M718.143 556.95L762.573 660.86" stroke="#BAB280" stroke-width="1.5"/>
<path d="M718.143 556.95L864.167 547.26" stroke="#BAB280" stroke-width="1.5"/>
<path d="M718.143 556.95L701.01 412.31" stroke="#BAB280" stroke-width="1.5"/>
<path d="M864.167 547.26L762.573 660.86" stroke="#BAB280" stroke-width="1.5"/>
<path d="M864.167 547.26L917.129 700.49" stroke="#BAB280" stroke-width="1.5"/>
<path d="M864.167 547.26L1054.09 521.52" stroke="#BAB280" stroke-width="1.5"/>
<path d="M1094.31 697.64L1054.09 521.52" stroke="#BAB280" stroke-width="1.5"/>
<path d="M1094.31 697.64L1240.11 515.94" stroke="#BAB280" stroke-width="1.5"/>
<path d="M1380.32 212.94L1275.99 112.21" stroke="#BAB280" stroke-width="1.5"/>
<path d="M1380.32 212.94L1407.49 41.7002" stroke="#BAB280" stroke-width="1.5"/>
<path d="M1380.32 212.94L1590.53 195.58" stroke="#BAB280" stroke-width="1.5"/>
<path d="M1380.32 212.94L1280.89 380.09" stroke="#BAB280" stroke-width="1.5"/>
<path d="M1380.32 212.94L1412.4 405.49" stroke="#BAB280" stroke-width="1.5"/>
<path d="M1587.03 562.38L1412.33 501.24" stroke="#BAB280" stroke-width="1.5"/>
<path d="M1596.37 703.54L1412.33 501.24" stroke="#BAB280" stroke-width="1.5"/>
<path d="M-125.869 664.17L28.9888 493.78" stroke="#BAB280" stroke-width="1.5"/>
<path d="M-125.869 664.17L168.635 494.03" stroke="#BAB280" stroke-width="1.5"/>
<path d="M28.9888 493.78L168.635 494.03" stroke="#BAB280" stroke-width="1.5"/>
<path d="M28.9888 493.78L27.5649 639.44" stroke="#BAB280" stroke-width="1.5"/>
<path d="M28.9888 493.78L178.753 647.8" stroke="#BAB280" stroke-width="1.5"/>
<path d="M28.9888 493.78L-298.114 545.84" stroke="#BAB280" stroke-width="1.5"/>
<path d="M27.5649 639.44L168.635 494.03" stroke="#BAB280" stroke-width="1.5"/>
<path d="M168.635 494.03L178.752 647.8" stroke="#BAB280" stroke-width="1.5"/>
<path d="M168.635 494.03L397.083 498.84" stroke="#BAB280" stroke-width="1.5"/>
<path d="M168.635 494.03L382.451 699.35" stroke="#BAB280" stroke-width="1.5"/>
<path d="M397.083 498.84L587.885 404.83" stroke="#BAB280" stroke-width="1.5"/>
<path d="M382.451 699.35L397.083 498.84" stroke="#BAB280" stroke-width="1.5"/>
<path d="M587.885 404.83L701.01 412.31" stroke="#BAB280" stroke-width="1.5"/>
<path d="M551.419 703.6L718.143 556.95" stroke="#BAB280" stroke-width="1.5"/>
<path d="M551.42 703.6L397.083 498.84" stroke="#BAB280" stroke-width="1.5"/>
<path d="M701.01 412.31L864.167 547.26" stroke="#BAB280" stroke-width="1.5"/>
<path d="M701.01 412.31L942.262 394.23" stroke="#BAB280" stroke-width="1.5"/>
<path d="M942.262 394.23L1054.09 521.52" stroke="#BAB280" stroke-width="1.5"/>
<path d="M942.262 394.23L864.167 547.26" stroke="#BAB280" stroke-width="1.5"/>
<path d="M942.262 394.23L1056.52 220.15" stroke="#BAB280" stroke-width="1.5"/>
<path d="M942.261 394.23L718.143 556.95" stroke="#BAB280" stroke-width="1.5"/>
<path d="M1056.52 220.15L1280.29 200.83" stroke="#BAB280" stroke-width="1.5"/>
<path d="M1056.52 220.15L1275.99 112.21" stroke="#BAB280" stroke-width="1.5"/>
<path d="M1056.52 220.15L1280.89 380.09" stroke="#BAB280" stroke-width="1.5"/>
<path d="M1056.52 220.15L1054.09 521.52" stroke="#BAB280" stroke-width="1.5"/>
<path d="M1054.09 521.52L1240.11 515.94" stroke="#BAB280" stroke-width="1.5"/>
<path d="M1440 2L1280 201" stroke="#BAB280" stroke-width="1.5"/>
<path d="M1275.99 112.21L1280.29 200.83" stroke="#BAB280" stroke-width="1.5"/>
<path d="M1275.99 112.21L1407.49 41.7002" stroke="#BAB280" stroke-width="1.5"/>
<path d="M1280.29 200.83L1280.89 380.09" stroke="#BAB280" stroke-width="1.5"/>
<path d="M1280.89 380.09L1412.4 405.49" stroke="#BAB280" stroke-width="1.5"/>
<path d="M1280.89 380.09L1240.11 515.94" stroke="#BAB280" stroke-width="1.5"/>
<path d="M1280.89 380.09L1412.33 501.24" stroke="#BAB280" stroke-width="1.5"/>
<path d="M1280.89 380.09L1446 311.5L1556.48 410.26" stroke="#BAB280" stroke-width="1.5"/>
<path d="M1240.11 515.94L1263.9 638.64" stroke="#BAB280" stroke-width="1.5"/>
<path d="M1240.11 515.94L1412.33 501.24" stroke="#BAB280" stroke-width="1.5"/>
<path d="M1263.9 638.64L1412.33 501.24" stroke="#BAB280" stroke-width="1.5"/>
<path d="M1263.9 638.64L1054.09 521.52" stroke="#BAB280" stroke-width="1.5"/>
<path d="M1412.4 405.49L1412.33 501.24" stroke="#BAB280" stroke-width="1.5"/>
<path d="M1412.4 405.49L1556.48 410.26" stroke="#BAB280" stroke-width="1.5"/>
<path d="M1412.4 405.49L1240.11 515.94" stroke="#BAB280" stroke-width="1.5"/>
<path d="M1412.4 405.49L1587.03 562.38" stroke="#BAB280" stroke-width="1.5"/>
<path d="M1412.33 501.24L1556.48 410.26" stroke="#BAB280" stroke-width="1.5"/>
<path d="M1406.46 684.98L1412.33 501.24" stroke="#BAB280" stroke-width="1.5"/>
<path d="M1590.53 195.58L1407.49 41.7002" stroke="#BAB280" stroke-width="1.5"/>
<path d="M1590.53 195.58L1412.4 405.49" stroke="#BAB280" stroke-width="1.5"/>
<path d="M1590.53 195.58L1459 327L1280.29 200.83" stroke="#BAB280" stroke-width="1.5"/>
<path d="M584.875 527.62C600.859 527.62 613.816 516.427 613.816 502.62C613.816 488.813 600.859 477.62 584.875 477.62C568.892 477.62 555.934 488.813 555.934 502.62C555.934 516.427 568.892 527.62 584.875 527.62Z" fill="url(#paint0_radial_149_2641)"/>
<path d="M718.143 581.95C734.126 581.95 747.084 570.757 747.084 556.95C747.084 543.143 734.126 531.95 718.143 531.95C702.159 531.95 689.202 543.143 689.202 556.95C689.202 570.757 702.159 581.95 718.143 581.95Z" fill="url(#paint1_radial_149_2641)"/>
<path d="M864.167 572.26C880.151 572.26 893.108 561.067 893.108 547.26C893.108 533.453 880.151 522.26 864.167 522.26C848.184 522.26 835.226 533.453 835.226 547.26C835.226 561.067 848.184 572.26 864.167 572.26Z" fill="url(#paint2_radial_149_2641)"/>
<path d="M1407.49 66.7002C1423.48 66.7002 1436.43 55.5073 1436.43 41.7002C1436.43 27.8931 1423.48 16.7002 1407.49 16.7002C1391.51 16.7002 1378.55 27.8931 1378.55 41.7002C1378.55 55.5073 1391.51 66.7002 1407.49 66.7002Z" fill="url(#paint3_radial_149_2641)"/>
<path d="M1380.32 237.94C1396.31 237.94 1409.26 226.747 1409.26 212.94C1409.26 199.133 1396.31 187.94 1380.32 187.94C1364.34 187.94 1351.38 199.133 1351.38 212.94C1351.38 226.747 1364.34 237.94 1380.32 237.94Z" fill="url(#paint4_radial_149_2641)"/>
<path d="M28.9889 498.78C32.1856 498.78 34.7771 496.541 34.7771 493.78C34.7771 491.018 32.1856 488.78 28.9889 488.78C25.7921 488.78 23.2007 491.018 23.2007 493.78C23.2007 496.541 25.7921 498.78 28.9889 498.78Z" fill="#CEC9AA"/>
<path d="M168.635 499.03C171.831 499.03 174.423 496.791 174.423 494.03C174.423 491.268 171.831 489.03 168.635 489.03C165.438 489.03 162.846 491.268 162.846 494.03C162.846 496.791 165.438 499.03 168.635 499.03Z" fill="#CEC9AA"/>
<path d="M397.083 503.84C400.28 503.84 402.871 501.601 402.871 498.84C402.871 496.078 400.28 493.84 397.083 493.84C393.887 493.84 391.295 496.078 391.295 498.84C391.295 501.601 393.887 503.84 397.083 503.84Z" fill="#CEC9AA"/>
<path d="M587.885 409.83C591.082 409.83 593.673 407.592 593.673 404.83C593.673 402.069 591.082 399.83 587.885 399.83C584.688 399.83 582.097 402.069 582.097 404.83C582.097 407.592 584.688 409.83 587.885 409.83Z" fill="#CEC9AA"/>
<path d="M701.01 417.31C704.206 417.31 706.798 415.071 706.798 412.31C706.798 409.549 704.206 407.31 701.01 407.31C697.813 407.31 695.222 409.549 695.222 412.31C695.222 415.071 697.813 417.31 701.01 417.31Z" fill="#CEC9AA"/>
<path d="M942.262 399.23C945.458 399.23 948.05 396.991 948.05 394.23C948.05 391.469 945.458 389.23 942.262 389.23C939.065 389.23 936.473 391.469 936.473 394.23C936.473 396.991 939.065 399.23 942.262 399.23Z" fill="#CEC9AA"/>
<path d="M1056.52 225.15C1059.72 225.15 1062.31 222.911 1062.31 220.15C1062.31 217.388 1059.72 215.15 1056.52 215.15C1053.32 215.15 1050.73 217.388 1050.73 220.15C1050.73 222.911 1053.32 225.15 1056.52 225.15Z" fill="#CEC9AA"/>
<path d="M1054.09 526.52C1057.29 526.52 1059.88 524.281 1059.88 521.52C1059.88 518.759 1057.29 516.52 1054.09 516.52C1050.89 516.52 1048.3 518.759 1048.3 521.52C1048.3 524.281 1050.89 526.52 1054.09 526.52Z" fill="#CEC9AA"/>
<path d="M1275.99 117.21C1279.18 117.21 1281.77 114.971 1281.77 112.21C1281.77 109.449 1279.18 107.21 1275.99 107.21C1272.79 107.21 1270.2 109.449 1270.2 112.21C1270.2 114.971 1272.79 117.21 1275.99 117.21Z" fill="#CEC9AA"/>
<path d="M1280.29 205.83C1283.49 205.83 1286.08 203.592 1286.08 200.83C1286.08 198.069 1283.49 195.83 1280.29 195.83C1277.1 195.83 1274.5 198.069 1274.5 200.83C1274.5 203.592 1277.1 205.83 1280.29 205.83Z" fill="#CEC9AA"/>
<path d="M1280.89 385.09C1284.09 385.09 1286.68 382.851 1286.68 380.09C1286.68 377.328 1284.09 375.09 1280.89 375.09C1277.7 375.09 1275.11 377.328 1275.11 380.09C1275.11 382.851 1277.7 385.09 1280.89 385.09Z" fill="#CEC9AA"/>
<path d="M1240.11 520.94C1243.31 520.94 1245.9 518.701 1245.9 515.94C1245.9 513.179 1243.31 510.94 1240.11 510.94C1236.91 510.94 1234.32 513.179 1234.32 515.94C1234.32 518.701 1236.91 520.94 1240.11 520.94Z" fill="#CEC9AA"/>
<path d="M1412.4 410.49C1415.6 410.49 1418.19 408.251 1418.19 405.49C1418.19 402.728 1415.6 400.49 1412.4 400.49C1409.21 400.49 1406.61 402.728 1406.61 405.49C1406.61 408.251 1409.21 410.49 1412.4 410.49Z" fill="#CEC9AA"/>
<path d="M1412.33 506.24C1415.53 506.24 1418.12 504.001 1418.12 501.24C1418.12 498.478 1415.53 496.24 1412.33 496.24C1409.14 496.24 1406.54 498.478 1406.54 501.24C1406.54 504.001 1409.14 506.24 1412.33 506.24Z" fill="#CEC9AA"/>
<path d="M1059 222.741L1185 572" stroke="#BAB280" stroke-width="1.5"/>
</g>
<defs>
<radialGradient id="paint0_radial_149_2641" cx="0" cy="0" r="1" gradientUnits="userSpaceOnUse" gradientTransform="translate(584.875 502.62) scale(28.941 25)">
<stop offset="0.1" stop-color="white"/>
<stop offset="0.2" stop-color="#9D9355"/>
<stop offset="1" stop-color="#9D9355" stop-opacity="0"/>
</radialGradient>
<radialGradient id="paint1_radial_149_2641" cx="0" cy="0" r="1" gradientUnits="userSpaceOnUse" gradientTransform="translate(718.143 556.95) scale(28.941 25)">
<stop offset="0.1" stop-color="white"/>
<stop offset="0.2" stop-color="#9D9355"/>
<stop offset="1" stop-color="#9D9355" stop-opacity="0"/>
</radialGradient>
<radialGradient id="paint2_radial_149_2641" cx="0" cy="0" r="1" gradientUnits="userSpaceOnUse" gradientTransform="translate(864.167 547.26) scale(28.941 25)">
<stop offset="0.1" stop-color="white"/>
<stop offset="0.2" stop-color="#9D9355"/>
<stop offset="1" stop-color="#9D9355" stop-opacity="0"/>
</radialGradient>
<radialGradient id="paint3_radial_149_2641" cx="0" cy="0" r="1" gradientUnits="userSpaceOnUse" gradientTransform="translate(1407.49 41.7002) scale(28.941 25)">
<stop offset="0.1" stop-color="white"/>
<stop offset="0.2" stop-color="#9D9355"/>
<stop offset="1" stop-color="#9D9355" stop-opacity="0"/>
</radialGradient>
<radialGradient id="paint4_radial_149_2641" cx="0" cy="0" r="1" gradientUnits="userSpaceOnUse" gradientTransform="translate(1380.32 212.94) scale(28.941 25)">
<stop offset="0.1" stop-color="white"/>
<stop offset="0.2" stop-color="#9D9355"/>
<stop offset="1" stop-color="#9D9355" stop-opacity="0"/>
</radialGradient>
</defs>
</svg>
