<svg width="1653" height="556" viewBox="0 0 1653 556" fill="none" xmlns="http://www.w3.org/2000/svg">
<mask id="mask0_110_644" style="mask-type:luminance" maskUnits="userSpaceOnUse" x="0" y="0" width="1653" height="556">
<path d="M0.00012207 0.00014451L1653 0L1653 555.297L0.000170616 555.297L0.00012207 0.00014451Z" fill="white"/>
</mask>
<g mask="url(#mask0_110_644)">
<path d="M1723.52 541.256L1552.72 658.592" stroke="#BAB280" stroke-width="1.5"/>
<path d="M847.943 498.399L844.958 401.43" stroke="#BAB280" stroke-width="1.5"/>
<path d="M847.943 498.399L715.795 552.273" stroke="#BAB280" stroke-width="1.5"/>
<path d="M847.943 498.399L732.784 408.847" stroke="#BAB280" stroke-width="1.5"/>
<path d="M847.943 498.399L1034.16 494.651" stroke="#BAB280" stroke-width="1.5"/>
<path d="M847.943 498.399L881.118 697.691" stroke="#BAB280" stroke-width="1.5"/>
<path d="M847.943 498.399L671.738 655.31" stroke="#BAB280" stroke-width="1.5"/>
<path d="M715.795 552.273L671.738 655.31" stroke="#BAB280" stroke-width="1.5"/>
<path d="M715.795 552.273L570.997 542.664" stroke="#BAB280" stroke-width="1.5"/>
<path d="M715.795 552.273L732.784 408.847" stroke="#BAB280" stroke-width="1.5"/>
<path d="M570.996 542.664L671.737 655.31" stroke="#BAB280" stroke-width="1.5"/>
<path d="M570.997 542.664L518.479 694.607" stroke="#BAB280" stroke-width="1.5"/>
<path d="M570.997 542.664L382.669 517.14" stroke="#BAB280" stroke-width="1.5"/>
<path d="M342.79 691.781L382.669 517.14" stroke="#BAB280" stroke-width="1.5"/>
<path d="M342.791 691.781L198.21 511.607" stroke="#BAB280" stroke-width="1.5"/>
<path d="M59.1749 211.152L158.366 199.144" stroke="#BAB280" stroke-width="1.5"/>
<path d="M59.175 211.152L162.637 111.268" stroke="#BAB280" stroke-width="1.5"/>
<path d="M59.1748 211.152L32.2331 41.3499" stroke="#BAB280" stroke-width="1.5"/>
<path d="M59.1748 211.152L-149.264 193.938" stroke="#BAB280" stroke-width="1.5"/>
<path d="M59.1751 211.152L157.77 376.898" stroke="#BAB280" stroke-width="1.5"/>
<path d="M59.1748 211.152L27.366 402.085" stroke="#BAB280" stroke-width="1.5"/>
<path d="M-145.797 557.657L27.4353 497.031" stroke="#BAB280" stroke-width="1.5"/>
<path d="M-155.06 697.632L27.4353 497.031" stroke="#BAB280" stroke-width="1.5"/>
<path d="M1552.72 658.592L1399.16 489.633" stroke="#BAB280" stroke-width="1.5"/>
<path d="M1552.72 658.592L1260.69 489.881" stroke="#BAB280" stroke-width="1.5"/>
<path d="M1399.16 489.633L1260.69 489.881" stroke="#BAB280" stroke-width="1.5"/>
<path d="M1399.16 489.633L1400.57 634.07" stroke="#BAB280" stroke-width="1.5"/>
<path d="M1399.16 489.633L1250.66 642.36" stroke="#BAB280" stroke-width="1.5"/>
<path d="M1399.16 489.633L1723.52 541.256" stroke="#BAB280" stroke-width="1.5"/>
<path d="M1400.57 634.07L1260.69 489.881" stroke="#BAB280" stroke-width="1.5"/>
<path d="M1260.69 489.881L1250.65 642.36" stroke="#BAB280" stroke-width="1.5"/>
<path d="M1260.69 489.881L1034.16 494.651" stroke="#BAB280" stroke-width="1.5"/>
<path d="M1260.69 489.881L1048.67 693.477" stroke="#BAB280" stroke-width="1.5"/>
<path d="M1034.16 494.651L844.958 401.43" stroke="#BAB280" stroke-width="1.5"/>
<path d="M1048.67 693.477L1034.16 494.651" stroke="#BAB280" stroke-width="1.5"/>
<path d="M844.958 401.43L732.784 408.847" stroke="#BAB280" stroke-width="1.5"/>
<path d="M881.118 697.691L715.795 552.273" stroke="#BAB280" stroke-width="1.5"/>
<path d="M881.117 697.691L1034.16 494.651" stroke="#BAB280" stroke-width="1.5"/>
<path d="M732.784 408.847L570.996 542.664" stroke="#BAB280" stroke-width="1.5"/>
<path d="M732.784 408.847L493.558 390.919" stroke="#BAB280" stroke-width="1.5"/>
<path d="M732.784 408.847L671.738 655.31" stroke="#BAB280" stroke-width="1.5"/>
<path d="M493.558 390.919L382.669 517.14" stroke="#BAB280" stroke-width="1.5"/>
<path d="M493.558 390.919L570.997 542.664" stroke="#BAB280" stroke-width="1.5"/>
<path d="M493.558 390.919L380.259 218.301" stroke="#BAB280" stroke-width="1.5"/>
<path d="M493.558 390.919L715.795 552.273" stroke="#BAB280" stroke-width="1.5"/>
<path d="M380.258 218.301L158.366 199.143" stroke="#BAB280" stroke-width="1.5"/>
<path d="M380.258 218.301L162.636 111.268" stroke="#BAB280" stroke-width="1.5"/>
<path d="M380.258 218.301L157.769 376.898" stroke="#BAB280" stroke-width="1.5"/>
<path d="M380.258 218.301L59.1746 211.152" stroke="#BAB280" stroke-width="1.5"/>
<path d="M380.258 218.301L382.669 517.14" stroke="#BAB280" stroke-width="1.5"/>
<path d="M382.669 517.14L198.21 511.607" stroke="#BAB280" stroke-width="1.5"/>
<path d="M0 1.98328L158.656 199.312" stroke="#BAB280" stroke-width="1.5"/>
<path d="M162.637 111.268L158.366 199.143" stroke="#BAB280" stroke-width="1.5"/>
<path d="M162.637 111.268L32.2333 41.3499" stroke="#BAB280" stroke-width="1.5"/>
<path d="M158.366 199.144L157.769 376.898" stroke="#BAB280" stroke-width="1.5"/>
<path d="M157.77 376.898L27.3662 402.085" stroke="#BAB280" stroke-width="1.5"/>
<path d="M157.769 376.898L198.21 511.607" stroke="#BAB280" stroke-width="1.5"/>
<path d="M157.77 376.898L27.4352 497.03" stroke="#BAB280" stroke-width="1.5"/>
<path d="M157.77 376.898L-115.503 406.815" stroke="#BAB280" stroke-width="1.5"/>
<path d="M198.21 511.607L174.621 633.276" stroke="#BAB280" stroke-width="1.5"/>
<path d="M198.21 511.607L27.4349 497.031" stroke="#BAB280" stroke-width="1.5"/>
<path d="M174.621 633.277L27.4348 497.031" stroke="#BAB280" stroke-width="1.5"/>
<path d="M174.621 633.277L382.669 517.14" stroke="#BAB280" stroke-width="1.5"/>
<path d="M27.3661 402.085L27.4351 497.03" stroke="#BAB280" stroke-width="1.5"/>
<path d="M27.366 402.085L-115.504 406.815" stroke="#BAB280" stroke-width="1.5"/>
<path d="M27.3659 402.085L198.21 511.607" stroke="#BAB280" stroke-width="1.5"/>
<path d="M27.366 402.085L-145.797 557.657" stroke="#BAB280" stroke-width="1.5"/>
<path d="M27.4351 497.03L-115.504 406.815" stroke="#BAB280" stroke-width="1.5"/>
<path d="M33.2549 679.227L27.435 497.031" stroke="#BAB280" stroke-width="1.5"/>
<path d="M-149.264 193.938L32.2334 41.3499" stroke="#BAB280" stroke-width="1.5"/>
<path d="M-149.264 193.938L27.366 402.085" stroke="#BAB280" stroke-width="1.5"/>
<path d="M-149.264 193.938L158.366 199.144" stroke="#BAB280" stroke-width="1.5"/>
<path d="M847.943 523.189C832.093 523.189 819.245 512.09 819.245 498.399C819.245 484.708 832.093 473.609 847.943 473.609C863.792 473.609 876.641 484.708 876.641 498.399C876.641 512.09 863.792 523.189 847.943 523.189Z" fill="url(#paint0_radial_110_644)"/>
<path d="M715.795 577.063C699.945 577.063 687.097 565.964 687.097 552.272C687.097 538.581 699.945 527.482 715.795 527.482C731.644 527.482 744.493 538.581 744.493 552.272C744.493 565.964 731.644 577.063 715.795 577.063Z" fill="url(#paint1_radial_110_644)"/>
<path d="M570.996 567.454C555.147 567.454 542.299 556.355 542.299 542.664C542.299 528.973 555.147 517.874 570.996 517.874C586.846 517.874 599.694 528.973 599.694 542.664C599.694 556.355 586.846 567.454 570.996 567.454Z" fill="url(#paint2_radial_110_644)"/>
<path d="M32.2332 66.1399C16.3838 66.1399 3.53533 55.041 3.53533 41.3499C3.53533 27.6587 16.3838 16.5598 32.2332 16.5598C48.0827 16.5598 60.9312 27.6587 60.9312 41.3499C60.9312 55.041 48.0827 66.1399 32.2332 66.1399Z" fill="url(#paint3_radial_110_644)"/>
<path d="M59.1751 235.942C43.3257 235.942 30.4772 224.843 30.4772 211.152C30.4772 197.461 43.3257 186.362 59.1751 186.362C75.0246 186.362 87.873 197.461 87.873 211.152C87.8731 224.843 75.0246 235.942 59.1751 235.942Z" fill="url(#paint4_radial_110_644)"/>
<path d="M1399.16 494.591C1395.99 494.591 1393.42 492.371 1393.42 489.633C1393.42 486.895 1395.99 484.675 1399.16 484.675C1402.33 484.675 1404.9 486.895 1404.9 489.633C1404.9 492.371 1402.33 494.591 1399.16 494.591Z" fill="#CEC9AA"/>
<path d="M1260.69 494.839C1257.52 494.839 1254.95 492.619 1254.95 489.881C1254.95 487.143 1257.52 484.923 1260.69 484.923C1263.86 484.923 1266.43 487.143 1266.43 489.881C1266.43 492.619 1263.86 494.839 1260.69 494.839Z" fill="#CEC9AA"/>
<path d="M1034.16 499.609C1030.99 499.609 1028.42 497.389 1028.42 494.651C1028.42 491.912 1030.99 489.693 1034.16 489.693C1037.33 489.693 1039.9 491.912 1039.9 494.651C1039.9 497.389 1037.33 499.609 1034.16 499.609Z" fill="#CEC9AA"/>
<path d="M844.959 406.388C841.789 406.388 839.219 404.169 839.219 401.43C839.219 398.692 841.789 396.472 844.959 396.472C848.129 396.472 850.698 398.692 850.698 401.43C850.698 404.169 848.129 406.388 844.959 406.388Z" fill="#CEC9AA"/>
<path d="M732.784 413.805C729.614 413.805 727.044 411.586 727.044 408.847C727.044 406.109 729.614 403.889 732.784 403.889C735.954 403.889 738.523 406.109 738.523 408.847C738.523 411.586 735.954 413.805 732.784 413.805Z" fill="#CEC9AA"/>
<path d="M493.558 395.877C490.388 395.877 487.818 393.657 487.818 390.919C487.818 388.181 490.388 385.961 493.558 385.961C496.728 385.961 499.297 388.181 499.297 390.919C499.297 393.657 496.728 395.877 493.558 395.877Z" fill="#CEC9AA"/>
<path d="M380.258 223.259C377.089 223.259 374.519 221.04 374.519 218.301C374.519 215.563 377.089 213.343 380.258 213.343C383.428 213.343 385.998 215.563 385.998 218.301C385.998 221.04 383.428 223.259 380.258 223.259Z" fill="#CEC9AA"/>
<path d="M382.669 522.098C379.499 522.098 376.93 519.878 376.93 517.14C376.93 514.402 379.499 512.182 382.669 512.182C385.839 512.182 388.409 514.402 388.409 517.14C388.409 519.878 385.839 522.098 382.669 522.098Z" fill="#CEC9AA"/>
<path d="M162.636 116.226C159.467 116.226 156.897 114.006 156.897 111.268C156.897 108.529 159.467 106.31 162.636 106.31C165.806 106.31 168.376 108.529 168.376 111.268C168.376 114.006 165.806 116.226 162.636 116.226Z" fill="#CEC9AA"/>
<path d="M158.366 204.102C155.196 204.102 152.627 201.882 152.627 199.144C152.627 196.405 155.196 194.186 158.366 194.186C161.536 194.186 164.106 196.405 164.106 199.144C164.106 201.882 161.536 204.102 158.366 204.102Z" fill="#CEC9AA"/>
<path d="M157.77 381.856C154.6 381.856 152.03 379.636 152.03 376.898C152.03 374.16 154.6 371.94 157.77 371.94C160.94 371.94 163.509 374.16 163.509 376.898C163.509 379.636 160.94 381.856 157.77 381.856Z" fill="#CEC9AA"/>
<path d="M198.211 516.565C195.041 516.565 192.471 514.345 192.471 511.607C192.471 508.869 195.041 506.649 198.211 506.649C201.38 506.649 203.95 508.869 203.95 511.607C203.95 514.345 201.38 516.565 198.211 516.565Z" fill="#CEC9AA"/>
<path d="M27.3659 407.043C24.196 407.043 21.6263 404.823 21.6263 402.085C21.6263 399.346 24.196 397.127 27.3659 397.127C30.5358 397.127 33.1055 399.346 33.1055 402.085C33.1055 404.823 30.5358 407.043 27.3659 407.043Z" fill="#CEC9AA"/>
<path d="M27.435 501.988C24.2651 501.988 21.6954 499.769 21.6954 497.03C21.6954 494.292 24.2651 492.072 27.435 492.072C30.6049 492.072 33.1746 494.292 33.1746 497.03C33.1746 499.769 30.6049 501.988 27.435 501.988Z" fill="#CEC9AA"/>
</g>
<defs>
<radialGradient id="paint0_radial_110_644" cx="0" cy="0" r="1" gradientUnits="userSpaceOnUse" gradientTransform="translate(847.943 498.399) rotate(180) scale(28.6979 24.79)">
<stop offset="0.1" stop-color="white"/>
<stop offset="0.2" stop-color="#9D9355"/>
<stop offset="1" stop-color="#9D9355" stop-opacity="0"/>
</radialGradient>
<radialGradient id="paint1_radial_110_644" cx="0" cy="0" r="1" gradientUnits="userSpaceOnUse" gradientTransform="translate(715.795 552.272) rotate(180) scale(28.6979 24.79)">
<stop offset="0.1" stop-color="white"/>
<stop offset="0.2" stop-color="#9D9355"/>
<stop offset="1" stop-color="#9D9355" stop-opacity="0"/>
</radialGradient>
<radialGradient id="paint2_radial_110_644" cx="0" cy="0" r="1" gradientUnits="userSpaceOnUse" gradientTransform="translate(570.996 542.664) rotate(180) scale(28.6979 24.79)">
<stop offset="0.1" stop-color="white"/>
<stop offset="0.2" stop-color="#9D9355"/>
<stop offset="1" stop-color="#9D9355" stop-opacity="0"/>
</radialGradient>
<radialGradient id="paint3_radial_110_644" cx="0" cy="0" r="1" gradientUnits="userSpaceOnUse" gradientTransform="translate(32.2332 41.3499) rotate(180) scale(28.6979 24.79)">
<stop offset="0.1" stop-color="white"/>
<stop offset="0.2" stop-color="#9D9355"/>
<stop offset="1" stop-color="#9D9355" stop-opacity="0"/>
</radialGradient>
<radialGradient id="paint4_radial_110_644" cx="0" cy="0" r="1" gradientUnits="userSpaceOnUse" gradientTransform="translate(59.1751 211.152) rotate(180) scale(28.6979 24.79)">
<stop offset="0.1" stop-color="white"/>
<stop offset="0.2" stop-color="#9D9355"/>
<stop offset="1" stop-color="#9D9355" stop-opacity="0"/>
</radialGradient>
</defs>
</svg>
