<svg width="21" height="14" viewBox="0 0 21 14" fill="none" xmlns="http://www.w3.org/2000/svg">
<path fill-rule="evenodd" clip-rule="evenodd" d="M16.3333 5.25V1.16667C16.3333 0.525 15.8083 0 15.1667 0H1.16667C0.525 0 0 0.525 0 1.16667V12.8333C0 13.475 0.525 14 1.16667 14H15.1667C15.8083 14 16.3333 13.475 16.3333 12.8333V8.75L19.005 11.4217C19.74 12.1567 21 11.6317 21 10.5933V3.395C21 2.35667 19.74 1.83167 19.005 2.56667L16.3333 5.25ZM8.16732 2.5C8.7196 2.5 9.16732 2.94772 9.16732 3.5V6H11.6673C12.2196 6 12.6673 6.44772 12.6673 7C12.6673 7.55228 12.2196 8 11.6673 8H9.16732V10.5C9.16732 11.0523 8.7196 11.5 8.16732 11.5C7.61503 11.5 7.16732 11.0523 7.16732 10.5V8H4.66732C4.11503 8 3.66732 7.55228 3.66732 7C3.66732 6.44772 4.11503 6 4.66732 6H7.16732V3.5C7.16732 2.94772 7.61503 2.5 8.16732 2.5Z" fill="#F4F4F4"/>
</svg>
