<svg width="1651" height="452" viewBox="0 0 1651 452" fill="none" xmlns="http://www.w3.org/2000/svg">
<path d="M903.958 451.958C818.068 451.958 738.199 401.806 700.469 324.226C675.244 272.336 622.634 239.439 564.979 239.439C507.324 239.439 454.713 272.379 429.489 324.226C391.759 401.806 311.889 451.958 226 451.958C101.363 451.958 0 350.595 0 226C0 101.405 101.363 0 226 0C311.889 0 391.759 50.1516 429.489 127.732C454.713 179.621 507.324 212.519 564.979 212.519C622.634 212.519 675.287 179.579 700.469 127.732C738.199 50.1516 818.068 0 903.958 0C1028.55 0 1129.96 101.363 1129.96 226C1129.96 350.637 1028.55 451.958 903.958 451.958Z" fill="white"/>
<path d="M1424.64 452C1549.45 452 1650.64 350.816 1650.64 226C1650.64 101.184 1549.45 0 1424.64 0C1299.82 0 1198.64 101.184 1198.64 226C1198.64 350.816 1299.82 452 1424.64 452Z" fill="white"/>
</svg>
