<svg width="1667" height="560" viewBox="0 0 1667 560" fill="none" xmlns="http://www.w3.org/2000/svg">
<mask id="mask0_108_329" style="mask-type:luminance" maskUnits="userSpaceOnUse" x="0" y="0" width="1667" height="561">
<path d="M0 560L1667 560L1667 0.00012207L4.89568e-05 -2.36635e-05L0 560Z" fill="white"/>
</mask>
<g mask="url(#mask0_108_329)">
<path d="M1738.11 14.1601L1565.87 -104.17" stroke="#BAB280" stroke-width="1.5"/>
<path d="M855.125 57.38L852.115 155.17" stroke="#BAB280" stroke-width="1.5"/>
<path d="M855.125 57.3801L721.857 3.0501" stroke="#BAB280" stroke-width="1.5"/>
<path d="M855.125 57.3801L738.99 147.69" stroke="#BAB280" stroke-width="1.5"/>
<path d="M855.125 57.38L1042.92 61.16" stroke="#BAB280" stroke-width="1.5"/>
<path d="M855.125 57.3801L888.581 -143.6" stroke="#BAB280" stroke-width="1.5"/>
<path d="M855.125 57.3801L677.427 -100.86" stroke="#BAB280" stroke-width="1.5"/>
<path d="M721.857 3.05011L677.427 -100.86" stroke="#BAB280" stroke-width="1.5"/>
<path d="M721.857 3.05005L575.833 12.74" stroke="#BAB280" stroke-width="1.5"/>
<path d="M721.857 3.05005L738.99 147.69" stroke="#BAB280" stroke-width="1.5"/>
<path d="M575.833 12.74L677.427 -100.86" stroke="#BAB280" stroke-width="1.5"/>
<path d="M575.833 12.7401L522.871 -140.49" stroke="#BAB280" stroke-width="1.5"/>
<path d="M575.833 12.7401L385.91 38.48" stroke="#BAB280" stroke-width="1.5"/>
<path d="M345.694 -137.64L385.911 38.48" stroke="#BAB280" stroke-width="1.5"/>
<path d="M345.694 -137.64L199.889 44.0601" stroke="#BAB280" stroke-width="1.5"/>
<path d="M59.6765 347.06L159.708 359.17" stroke="#BAB280" stroke-width="1.5"/>
<path d="M59.6762 347.06L164.014 447.79" stroke="#BAB280" stroke-width="1.5"/>
<path d="M59.6763 347.06L32.5064 518.3" stroke="#BAB280" stroke-width="1.5"/>
<path d="M59.6763 347.06L-150.528 364.42" stroke="#BAB280" stroke-width="1.5"/>
<path d="M59.6765 347.06L159.106 179.91" stroke="#BAB280" stroke-width="1.5"/>
<path d="M59.6763 347.06L27.598 154.51" stroke="#BAB280" stroke-width="1.5"/>
<path d="M-147.032 -2.37996L27.6675 58.7601" stroke="#BAB280" stroke-width="1.5"/>
<path d="M-156.374 -143.54L27.6675 58.7601" stroke="#BAB280" stroke-width="1.5"/>
<path d="M1565.87 -104.17L1411.01 66.2201" stroke="#BAB280" stroke-width="1.5"/>
<path d="M1565.87 -104.17L1271.37 65.9701" stroke="#BAB280" stroke-width="1.5"/>
<path d="M1411.01 66.2201L1271.37 65.9701" stroke="#BAB280" stroke-width="1.5"/>
<path d="M1411.01 66.2201L1412.44 -79.4399" stroke="#BAB280" stroke-width="1.5"/>
<path d="M1411.01 66.2201L1261.25 -87.7999" stroke="#BAB280" stroke-width="1.5"/>
<path d="M1411.01 66.2201L1738.11 14.1601" stroke="#BAB280" stroke-width="1.5"/>
<path d="M1412.44 -79.4399L1271.37 65.9701" stroke="#BAB280" stroke-width="1.5"/>
<path d="M1271.37 65.9701L1261.25 -87.7999" stroke="#BAB280" stroke-width="1.5"/>
<path d="M1271.37 65.9701L1042.92 61.1601" stroke="#BAB280" stroke-width="1.5"/>
<path d="M1271.37 65.9701L1057.55 -139.35" stroke="#BAB280" stroke-width="1.5"/>
<path d="M1042.92 61.16L852.115 155.17" stroke="#BAB280" stroke-width="1.5"/>
<path d="M1057.55 -139.35L1042.92 61.16" stroke="#BAB280" stroke-width="1.5"/>
<path d="M852.115 155.17L738.99 147.69" stroke="#BAB280" stroke-width="1.5"/>
<path d="M888.581 -143.6L721.857 3.05016" stroke="#BAB280" stroke-width="1.5"/>
<path d="M888.581 -143.6L1042.92 61.16" stroke="#BAB280" stroke-width="1.5"/>
<path d="M738.99 147.69L575.833 12.74" stroke="#BAB280" stroke-width="1.5"/>
<path d="M738.99 147.69L497.738 165.77" stroke="#BAB280" stroke-width="1.5"/>
<path d="M738.99 147.69L677.427 -100.86" stroke="#BAB280" stroke-width="1.5"/>
<path d="M497.738 165.77L385.91 38.4801" stroke="#BAB280" stroke-width="1.5"/>
<path d="M497.738 165.77L575.833 12.7401" stroke="#BAB280" stroke-width="1.5"/>
<path d="M497.738 165.77L383.479 339.85" stroke="#BAB280" stroke-width="1.5"/>
<path d="M497.739 165.77L721.857 3.05008" stroke="#BAB280" stroke-width="1.5"/>
<path d="M383.479 339.85L159.708 359.17" stroke="#BAB280" stroke-width="1.5"/>
<path d="M383.48 339.85L164.014 447.79" stroke="#BAB280" stroke-width="1.5"/>
<path d="M383.479 339.85L159.106 179.91" stroke="#BAB280" stroke-width="1.5"/>
<path d="M383.479 339.85L59.6764 347.06" stroke="#BAB280" stroke-width="1.5"/>
<path d="M383.48 339.85L385.911 38.4801" stroke="#BAB280" stroke-width="1.5"/>
<path d="M385.911 38.4801L199.89 44.0601" stroke="#BAB280" stroke-width="1.5"/>
<path d="M0 558L160 359" stroke="#BAB280" stroke-width="1.5"/>
<path d="M164.014 447.79L159.708 359.17" stroke="#BAB280" stroke-width="1.5"/>
<path d="M164.014 447.79L32.5063 518.3" stroke="#BAB280" stroke-width="1.5"/>
<path d="M159.708 359.17L159.106 179.91" stroke="#BAB280" stroke-width="1.5"/>
<path d="M159.106 179.91L27.5982 154.51" stroke="#BAB280" stroke-width="1.5"/>
<path d="M159.106 179.91L199.89 44.06" stroke="#BAB280" stroke-width="1.5"/>
<path d="M159.106 179.91L27.6678 58.76" stroke="#BAB280" stroke-width="1.5"/>
<path d="M159.106 179.91L-116.481 149.74" stroke="#BAB280" stroke-width="1.5"/>
<path d="M199.89 44.0601L176.1 -78.6399" stroke="#BAB280" stroke-width="1.5"/>
<path d="M199.89 44.0601L27.6677 58.7601" stroke="#BAB280" stroke-width="1.5"/>
<path d="M176.1 -78.64L27.6677 58.7601" stroke="#BAB280" stroke-width="1.5"/>
<path d="M176.1 -78.64L385.911 38.48" stroke="#BAB280" stroke-width="1.5"/>
<path d="M27.598 154.51L27.6675 58.7601" stroke="#BAB280" stroke-width="1.5"/>
<path d="M27.5979 154.51L-116.482 149.74" stroke="#BAB280" stroke-width="1.5"/>
<path d="M27.5982 154.51L199.89 44.0601" stroke="#BAB280" stroke-width="1.5"/>
<path d="M27.5979 154.51L-147.032 -2.37996" stroke="#BAB280" stroke-width="1.5"/>
<path d="M27.6675 58.7601L-116.482 149.74" stroke="#BAB280" stroke-width="1.5"/>
<path d="M33.5366 -124.98L27.6675 58.7601" stroke="#BAB280" stroke-width="1.5"/>
<path d="M-150.528 364.42L32.5063 518.3" stroke="#BAB280" stroke-width="1.5"/>
<path d="M-150.528 364.42L27.5979 154.51" stroke="#BAB280" stroke-width="1.5"/>
<path d="M-150.528 364.42L159.708 359.17" stroke="#BAB280" stroke-width="1.5"/>
<path d="M855.124 32.3801C839.141 32.3801 826.183 43.573 826.183 57.3801C826.183 71.1872 839.141 82.3801 855.124 82.3801C871.108 82.3801 884.065 71.1872 884.065 57.3801C884.065 43.573 871.108 32.3801 855.124 32.3801Z" fill="url(#paint0_radial_108_329)"/>
<path d="M721.857 -21.9498C705.874 -21.9498 692.916 -10.757 692.916 3.05017C692.916 16.8573 705.874 28.0502 721.857 28.0502C737.841 28.0502 750.798 16.8573 750.798 3.05017C750.798 -10.7569 737.841 -21.9498 721.857 -21.9498Z" fill="url(#paint1_radial_108_329)"/>
<path d="M575.832 -12.26C559.849 -12.26 546.891 -1.06707 546.891 12.74C546.891 26.5472 559.849 37.74 575.832 37.74C591.816 37.7401 604.773 26.5472 604.773 12.7401C604.773 -1.06707 591.816 -12.2599 575.832 -12.26Z" fill="url(#paint2_radial_108_329)"/>
<path d="M32.5063 493.3C16.5226 493.3 3.56533 504.493 3.56533 518.3C3.56532 532.107 16.5226 543.3 32.5063 543.3C48.49 543.3 61.4473 532.107 61.4473 518.3C61.4473 504.493 48.49 493.3 32.5063 493.3Z" fill="url(#paint3_radial_108_329)"/>
<path d="M59.6762 322.06C43.6926 322.06 30.7352 333.253 30.7352 347.06C30.7352 360.867 43.6926 372.06 59.6762 372.06C75.6599 372.06 88.6172 360.867 88.6172 347.06C88.6172 333.253 75.6599 322.06 59.6762 322.06Z" fill="url(#paint4_radial_108_329)"/>
<path d="M1411.01 61.2201C1407.81 61.2201 1405.22 63.4587 1405.22 66.2201C1405.22 68.9815 1407.81 71.2201 1411.01 71.2201C1414.21 71.2201 1416.8 68.9815 1416.8 66.2201C1416.8 63.4587 1414.21 61.2201 1411.01 61.2201Z" fill="#CEC9AA"/>
<path d="M1271.37 60.9701C1268.17 60.9701 1265.58 63.2087 1265.58 65.9701C1265.58 68.7315 1268.17 70.9701 1271.37 70.9701C1274.56 70.9701 1277.15 68.7315 1277.15 65.9701C1277.15 63.2087 1274.56 60.9701 1271.37 60.9701Z" fill="#CEC9AA"/>
<path d="M1042.92 56.16C1039.72 56.16 1037.13 58.3986 1037.13 61.16C1037.13 63.9215 1039.72 66.16 1042.92 66.16C1046.11 66.16 1048.71 63.9215 1048.71 61.16C1048.71 58.3986 1046.11 56.16 1042.92 56.16Z" fill="#CEC9AA"/>
<path d="M852.115 150.17C848.918 150.17 846.327 152.409 846.327 155.17C846.327 157.931 848.918 160.17 852.115 160.17C855.312 160.17 857.903 157.931 857.903 155.17C857.903 152.409 855.312 150.17 852.115 150.17Z" fill="#CEC9AA"/>
<path d="M738.99 142.69C735.793 142.69 733.202 144.929 733.202 147.69C733.202 150.451 735.793 152.69 738.99 152.69C742.187 152.69 744.778 150.451 744.778 147.69C744.778 144.929 742.187 142.69 738.99 142.69Z" fill="#CEC9AA"/>
<path d="M497.739 160.77C494.542 160.77 491.95 163.009 491.95 165.77C491.95 168.532 494.542 170.77 497.739 170.77C500.935 170.77 503.527 168.532 503.527 165.77C503.527 163.009 500.935 160.77 497.739 160.77Z" fill="#CEC9AA"/>
<path d="M383.479 334.85C380.283 334.85 377.691 337.089 377.691 339.85C377.691 342.612 380.283 344.85 383.479 344.85C386.676 344.85 389.268 342.612 389.268 339.85C389.268 337.089 386.676 334.85 383.479 334.85Z" fill="#CEC9AA"/>
<path d="M385.911 33.48C382.714 33.48 380.122 35.7186 380.122 38.48C380.122 41.2415 382.714 43.48 385.911 43.48C389.107 43.48 391.699 41.2415 391.699 38.48C391.699 35.7186 389.107 33.48 385.911 33.48Z" fill="#CEC9AA"/>
<path d="M164.014 442.79C160.817 442.79 158.226 445.029 158.226 447.79C158.226 450.551 160.817 452.79 164.014 452.79C167.211 452.79 169.802 450.551 169.802 447.79C169.802 445.029 167.211 442.79 164.014 442.79Z" fill="#CEC9AA"/>
<path d="M159.708 354.17C156.511 354.17 153.92 356.409 153.92 359.17C153.92 361.931 156.511 364.17 159.708 364.17C162.905 364.17 165.496 361.931 165.496 359.17C165.496 356.409 162.905 354.17 159.708 354.17Z" fill="#CEC9AA"/>
<path d="M159.106 174.91C155.909 174.91 153.318 177.149 153.318 179.91C153.318 182.671 155.909 184.91 159.106 184.91C162.303 184.91 164.894 182.671 164.894 179.91C164.894 177.149 162.303 174.91 159.106 174.91Z" fill="#CEC9AA"/>
<path d="M199.89 39.0601C196.693 39.0601 194.101 41.2987 194.101 44.0601C194.101 46.8215 196.693 49.0601 199.89 49.0601C203.086 49.0601 205.678 46.8215 205.678 44.0601C205.678 41.2987 203.086 39.0601 199.89 39.0601Z" fill="#CEC9AA"/>
<path d="M27.598 149.51C24.4013 149.51 21.8098 151.749 21.8098 154.51C21.8098 157.271 24.4013 159.51 27.598 159.51C30.7948 159.51 33.3862 157.271 33.3862 154.51C33.3862 151.749 30.7948 149.51 27.598 149.51Z" fill="#CEC9AA"/>
<path d="M27.6676 53.7601C24.4709 53.7601 21.8794 55.9986 21.8794 58.7601C21.8794 61.5215 24.4709 63.7601 27.6676 63.7601C30.8643 63.7601 33.4558 61.5215 33.4558 58.7601C33.4558 55.9986 30.8643 53.7601 27.6676 53.7601Z" fill="#CEC9AA"/>
</g>
<defs>
<radialGradient id="paint0_radial_108_329" cx="0" cy="0" r="1" gradientUnits="userSpaceOnUse" gradientTransform="translate(855.124 57.3801) rotate(-180) scale(28.941 25)">
<stop offset="0.1" stop-color="white"/>
<stop offset="0.2" stop-color="#9D9355"/>
<stop offset="1" stop-color="#9D9355" stop-opacity="0"/>
</radialGradient>
<radialGradient id="paint1_radial_108_329" cx="0" cy="0" r="1" gradientUnits="userSpaceOnUse" gradientTransform="translate(721.857 3.05017) rotate(-180) scale(28.941 25)">
<stop offset="0.1" stop-color="white"/>
<stop offset="0.2" stop-color="#9D9355"/>
<stop offset="1" stop-color="#9D9355" stop-opacity="0"/>
</radialGradient>
<radialGradient id="paint2_radial_108_329" cx="0" cy="0" r="1" gradientUnits="userSpaceOnUse" gradientTransform="translate(575.832 12.74) rotate(-180) scale(28.941 25)">
<stop offset="0.1" stop-color="white"/>
<stop offset="0.2" stop-color="#9D9355"/>
<stop offset="1" stop-color="#9D9355" stop-opacity="0"/>
</radialGradient>
<radialGradient id="paint3_radial_108_329" cx="0" cy="0" r="1" gradientUnits="userSpaceOnUse" gradientTransform="translate(32.5063 518.3) rotate(-180) scale(28.941 25)">
<stop offset="0.1" stop-color="white"/>
<stop offset="0.2" stop-color="#9D9355"/>
<stop offset="1" stop-color="#9D9355" stop-opacity="0"/>
</radialGradient>
<radialGradient id="paint4_radial_108_329" cx="0" cy="0" r="1" gradientUnits="userSpaceOnUse" gradientTransform="translate(59.6762 347.06) rotate(-180) scale(28.941 25)">
<stop offset="0.1" stop-color="white"/>
<stop offset="0.2" stop-color="#9D9355"/>
<stop offset="1" stop-color="#9D9355" stop-opacity="0"/>
</radialGradient>
</defs>
</svg>
