<svg width="1667" height="560" viewBox="0 0 1667 560" fill="none" xmlns="http://www.w3.org/2000/svg">
<mask id="mask0_91_329" style="mask-type:luminance" maskUnits="userSpaceOnUse" x="0" y="0" width="1667" height="560">
<path d="M1667 0H0V560H1667V0Z" fill="white"/>
</mask>
<g mask="url(#mask0_91_329)">
<path d="M-71.1138 545.84L101.131 664.17" stroke="#BAB280" stroke-width="1.5"/>
<path d="M811.875 502.62L814.885 404.83" stroke="#BAB280" stroke-width="1.5"/>
<path d="M811.875 502.62L945.143 556.95" stroke="#BAB280" stroke-width="1.5"/>
<path d="M811.875 502.62L928.01 412.31" stroke="#BAB280" stroke-width="1.5"/>
<path d="M811.875 502.62L624.083 498.84" stroke="#BAB280" stroke-width="1.5"/>
<path d="M811.875 502.62L778.419 703.6" stroke="#BAB280" stroke-width="1.5"/>
<path d="M811.875 502.62L989.573 660.86" stroke="#BAB280" stroke-width="1.5"/>
<path d="M945.143 556.95L989.573 660.86" stroke="#BAB280" stroke-width="1.5"/>
<path d="M945.143 556.95L1091.17 547.26" stroke="#BAB280" stroke-width="1.5"/>
<path d="M945.143 556.95L928.01 412.31" stroke="#BAB280" stroke-width="1.5"/>
<path d="M1091.17 547.26L989.573 660.86" stroke="#BAB280" stroke-width="1.5"/>
<path d="M1091.17 547.26L1144.13 700.49" stroke="#BAB280" stroke-width="1.5"/>
<path d="M1091.17 547.26L1281.09 521.52" stroke="#BAB280" stroke-width="1.5"/>
<path d="M1321.31 697.64L1281.09 521.52" stroke="#BAB280" stroke-width="1.5"/>
<path d="M1321.31 697.64L1467.11 515.94" stroke="#BAB280" stroke-width="1.5"/>
<path d="M1607.32 212.94L1507.29 200.83" stroke="#BAB280" stroke-width="1.5"/>
<path d="M1607.32 212.94L1502.99 112.21" stroke="#BAB280" stroke-width="1.5"/>
<path d="M1607.32 212.94L1634.49 41.7" stroke="#BAB280" stroke-width="1.5"/>
<path d="M1607.32 212.94L1817.53 195.58" stroke="#BAB280" stroke-width="1.5"/>
<path d="M1607.32 212.94L1507.89 380.09" stroke="#BAB280" stroke-width="1.5"/>
<path d="M1607.32 212.94L1639.4 405.49" stroke="#BAB280" stroke-width="1.5"/>
<path d="M1814.03 562.38L1639.33 501.24" stroke="#BAB280" stroke-width="1.5"/>
<path d="M1823.37 703.54L1639.33 501.24" stroke="#BAB280" stroke-width="1.5"/>
<path d="M101.131 664.17L255.989 493.78" stroke="#BAB280" stroke-width="1.5"/>
<path d="M101.131 664.17L395.635 494.03" stroke="#BAB280" stroke-width="1.5"/>
<path d="M255.989 493.78L395.635 494.03" stroke="#BAB280" stroke-width="1.5"/>
<path d="M255.989 493.78L254.565 639.44" stroke="#BAB280" stroke-width="1.5"/>
<path d="M255.989 493.78L405.753 647.8" stroke="#BAB280" stroke-width="1.5"/>
<path d="M255.989 493.78L-71.1138 545.84" stroke="#BAB280" stroke-width="1.5"/>
<path d="M254.565 639.44L395.635 494.03" stroke="#BAB280" stroke-width="1.5"/>
<path d="M395.635 494.03L405.753 647.8" stroke="#BAB280" stroke-width="1.5"/>
<path d="M395.635 494.03L624.083 498.84" stroke="#BAB280" stroke-width="1.5"/>
<path d="M395.635 494.03L609.451 699.35" stroke="#BAB280" stroke-width="1.5"/>
<path d="M624.083 498.84L814.885 404.83" stroke="#BAB280" stroke-width="1.5"/>
<path d="M609.45 699.35L624.083 498.84" stroke="#BAB280" stroke-width="1.5"/>
<path d="M814.885 404.83L928.01 412.31" stroke="#BAB280" stroke-width="1.5"/>
<path d="M778.419 703.6L945.143 556.95" stroke="#BAB280" stroke-width="1.5"/>
<path d="M778.42 703.6L624.083 498.84" stroke="#BAB280" stroke-width="1.5"/>
<path d="M928.01 412.31L1091.17 547.26" stroke="#BAB280" stroke-width="1.5"/>
<path d="M928.01 412.31L1169.26 394.23" stroke="#BAB280" stroke-width="1.5"/>
<path d="M928.01 412.31L989.573 660.86" stroke="#BAB280" stroke-width="1.5"/>
<path d="M1169.26 394.23L1281.09 521.52" stroke="#BAB280" stroke-width="1.5"/>
<path d="M1169.26 394.23L1091.17 547.26" stroke="#BAB280" stroke-width="1.5"/>
<path d="M1169.26 394.23L1283.52 220.15" stroke="#BAB280" stroke-width="1.5"/>
<path d="M1169.26 394.23L945.143 556.95" stroke="#BAB280" stroke-width="1.5"/>
<path d="M1283.52 220.15L1507.29 200.83" stroke="#BAB280" stroke-width="1.5"/>
<path d="M1283.52 220.15L1502.99 112.21" stroke="#BAB280" stroke-width="1.5"/>
<path d="M1283.52 220.15L1507.89 380.09" stroke="#BAB280" stroke-width="1.5"/>
<path d="M1283.52 220.15L1607.32 212.94" stroke="#BAB280" stroke-width="1.5"/>
<path d="M1283.52 220.15L1281.09 521.52" stroke="#BAB280" stroke-width="1.5"/>
<path d="M1281.09 521.52L1467.11 515.94" stroke="#BAB280" stroke-width="1.5"/>
<path d="M1667 2L1507 201" stroke="#BAB280" stroke-width="1.5"/>
<path d="M1502.99 112.21L1507.29 200.83" stroke="#BAB280" stroke-width="1.5"/>
<path d="M1502.99 112.21L1634.49 41.7" stroke="#BAB280" stroke-width="1.5"/>
<path d="M1507.29 200.83L1507.89 380.09" stroke="#BAB280" stroke-width="1.5"/>
<path d="M1507.89 380.09L1639.4 405.49" stroke="#BAB280" stroke-width="1.5"/>
<path d="M1507.89 380.09L1467.11 515.94" stroke="#BAB280" stroke-width="1.5"/>
<path d="M1507.89 380.09L1639.33 501.24" stroke="#BAB280" stroke-width="1.5"/>
<path d="M1507.89 380.09L1783.48 410.26" stroke="#BAB280" stroke-width="1.5"/>
<path d="M1467.11 515.94L1490.9 638.64" stroke="#BAB280" stroke-width="1.5"/>
<path d="M1467.11 515.94L1639.33 501.24" stroke="#BAB280" stroke-width="1.5"/>
<path d="M1490.9 638.64L1639.33 501.24" stroke="#BAB280" stroke-width="1.5"/>
<path d="M1490.9 638.64L1281.09 521.52" stroke="#BAB280" stroke-width="1.5"/>
<path d="M1639.4 405.49L1639.33 501.24" stroke="#BAB280" stroke-width="1.5"/>
<path d="M1639.4 405.49L1783.48 410.26" stroke="#BAB280" stroke-width="1.5"/>
<path d="M1639.4 405.49L1467.11 515.94" stroke="#BAB280" stroke-width="1.5"/>
<path d="M1639.4 405.49L1814.03 562.38" stroke="#BAB280" stroke-width="1.5"/>
<path d="M1639.33 501.24L1783.48 410.26" stroke="#BAB280" stroke-width="1.5"/>
<path d="M1633.46 684.98L1639.33 501.24" stroke="#BAB280" stroke-width="1.5"/>
<path d="M1817.53 195.58L1634.49 41.7" stroke="#BAB280" stroke-width="1.5"/>
<path d="M1817.53 195.58L1639.4 405.49" stroke="#BAB280" stroke-width="1.5"/>
<path d="M1817.53 195.58L1507.29 200.83" stroke="#BAB280" stroke-width="1.5"/>
<path d="M811.875 527.62C827.859 527.62 840.816 516.427 840.816 502.62C840.816 488.813 827.859 477.62 811.875 477.62C795.892 477.62 782.934 488.813 782.934 502.62C782.934 516.427 795.892 527.62 811.875 527.62Z" fill="url(#paint0_radial_91_329)"/>
<path d="M945.143 581.95C961.126 581.95 974.084 570.757 974.084 556.95C974.084 543.143 961.126 531.95 945.143 531.95C929.159 531.95 916.202 543.143 916.202 556.95C916.202 570.757 929.159 581.95 945.143 581.95Z" fill="url(#paint1_radial_91_329)"/>
<path d="M1091.17 572.26C1107.15 572.26 1120.11 561.067 1120.11 547.26C1120.11 533.453 1107.15 522.26 1091.17 522.26C1075.18 522.26 1062.23 533.453 1062.23 547.26C1062.23 561.067 1075.18 572.26 1091.17 572.26Z" fill="url(#paint2_radial_91_329)"/>
<path d="M1634.49 66.7C1650.48 66.7 1663.43 55.5071 1663.43 41.7C1663.43 27.8929 1650.48 16.7 1634.49 16.7C1618.51 16.7 1605.55 27.8929 1605.55 41.7C1605.55 55.5071 1618.51 66.7 1634.49 66.7Z" fill="url(#paint3_radial_91_329)"/>
<path d="M1607.32 237.94C1623.31 237.94 1636.26 226.747 1636.26 212.94C1636.26 199.133 1623.31 187.94 1607.32 187.94C1591.34 187.94 1578.38 199.133 1578.38 212.94C1578.38 226.747 1591.34 237.94 1607.32 237.94Z" fill="url(#paint4_radial_91_329)"/>
<path d="M255.989 498.78C259.186 498.78 261.777 496.541 261.777 493.78C261.777 491.019 259.186 488.78 255.989 488.78C252.792 488.78 250.201 491.019 250.201 493.78C250.201 496.541 252.792 498.78 255.989 498.78Z" fill="#CEC9AA"/>
<path d="M395.635 499.03C398.831 499.03 401.423 496.791 401.423 494.03C401.423 491.269 398.831 489.03 395.635 489.03C392.438 489.03 389.846 491.269 389.846 494.03C389.846 496.791 392.438 499.03 395.635 499.03Z" fill="#CEC9AA"/>
<path d="M624.083 503.84C627.28 503.84 629.871 501.602 629.871 498.84C629.871 496.079 627.28 493.84 624.083 493.84C620.886 493.84 618.295 496.079 618.295 498.84C618.295 501.602 620.886 503.84 624.083 503.84Z" fill="#CEC9AA"/>
<path d="M814.885 409.83C818.082 409.83 820.673 407.592 820.673 404.83C820.673 402.069 818.082 399.83 814.885 399.83C811.688 399.83 809.097 402.069 809.097 404.83C809.097 407.592 811.688 409.83 814.885 409.83Z" fill="#CEC9AA"/>
<path d="M928.01 417.31C931.207 417.31 933.798 415.071 933.798 412.31C933.798 409.549 931.207 407.31 928.01 407.31C924.813 407.31 922.222 409.549 922.222 412.31C922.222 415.071 924.813 417.31 928.01 417.31Z" fill="#CEC9AA"/>
<path d="M1169.26 399.23C1172.46 399.23 1175.05 396.991 1175.05 394.23C1175.05 391.469 1172.46 389.23 1169.26 389.23C1166.06 389.23 1163.47 391.469 1163.47 394.23C1163.47 396.991 1166.06 399.23 1169.26 399.23Z" fill="#CEC9AA"/>
<path d="M1283.52 225.15C1286.72 225.15 1289.31 222.911 1289.31 220.15C1289.31 217.389 1286.72 215.15 1283.52 215.15C1280.32 215.15 1277.73 217.389 1277.73 220.15C1277.73 222.911 1280.32 225.15 1283.52 225.15Z" fill="#CEC9AA"/>
<path d="M1281.09 526.52C1284.29 526.52 1286.88 524.281 1286.88 521.52C1286.88 518.759 1284.29 516.52 1281.09 516.52C1277.89 516.52 1275.3 518.759 1275.3 521.52C1275.3 524.281 1277.89 526.52 1281.09 526.52Z" fill="#CEC9AA"/>
<path d="M1502.99 117.21C1506.18 117.21 1508.77 114.971 1508.77 112.21C1508.77 109.449 1506.18 107.21 1502.99 107.21C1499.79 107.21 1497.2 109.449 1497.2 112.21C1497.2 114.971 1499.79 117.21 1502.99 117.21Z" fill="#CEC9AA"/>
<path d="M1507.29 205.83C1510.49 205.83 1513.08 203.591 1513.08 200.83C1513.08 198.069 1510.49 195.83 1507.29 195.83C1504.1 195.83 1501.5 198.069 1501.5 200.83C1501.5 203.591 1504.1 205.83 1507.29 205.83Z" fill="#CEC9AA"/>
<path d="M1507.89 385.09C1511.09 385.09 1513.68 382.852 1513.68 380.09C1513.68 377.329 1511.09 375.09 1507.89 375.09C1504.7 375.09 1502.11 377.329 1502.11 380.09C1502.11 382.852 1504.7 385.09 1507.89 385.09Z" fill="#CEC9AA"/>
<path d="M1467.11 520.94C1470.31 520.94 1472.9 518.701 1472.9 515.94C1472.9 513.179 1470.31 510.94 1467.11 510.94C1463.91 510.94 1461.32 513.179 1461.32 515.94C1461.32 518.701 1463.91 520.94 1467.11 520.94Z" fill="#CEC9AA"/>
<path d="M1639.4 410.49C1642.6 410.49 1645.19 408.251 1645.19 405.49C1645.19 402.729 1642.6 400.49 1639.4 400.49C1636.21 400.49 1633.61 402.729 1633.61 405.49C1633.61 408.251 1636.21 410.49 1639.4 410.49Z" fill="#CEC9AA"/>
<path d="M1639.33 506.24C1642.53 506.24 1645.12 504.001 1645.12 501.24C1645.12 498.479 1642.53 496.24 1639.33 496.24C1636.14 496.24 1633.54 498.479 1633.54 501.24C1633.54 504.001 1636.14 506.24 1639.33 506.24Z" fill="#CEC9AA"/>
</g>
<defs>
<radialGradient id="paint0_radial_91_329" cx="0" cy="0" r="1" gradientUnits="userSpaceOnUse" gradientTransform="translate(811.875 502.62) scale(28.941 25)">
<stop offset="0.1" stop-color="white"/>
<stop offset="0.2" stop-color="#9D9355"/>
<stop offset="1" stop-color="#9D9355" stop-opacity="0"/>
</radialGradient>
<radialGradient id="paint1_radial_91_329" cx="0" cy="0" r="1" gradientUnits="userSpaceOnUse" gradientTransform="translate(945.143 556.95) scale(28.941 25)">
<stop offset="0.1" stop-color="white"/>
<stop offset="0.2" stop-color="#9D9355"/>
<stop offset="1" stop-color="#9D9355" stop-opacity="0"/>
</radialGradient>
<radialGradient id="paint2_radial_91_329" cx="0" cy="0" r="1" gradientUnits="userSpaceOnUse" gradientTransform="translate(1091.17 547.26) scale(28.941 25)">
<stop offset="0.1" stop-color="white"/>
<stop offset="0.2" stop-color="#9D9355"/>
<stop offset="1" stop-color="#9D9355" stop-opacity="0"/>
</radialGradient>
<radialGradient id="paint3_radial_91_329" cx="0" cy="0" r="1" gradientUnits="userSpaceOnUse" gradientTransform="translate(1634.49 41.7) scale(28.941 25)">
<stop offset="0.1" stop-color="white"/>
<stop offset="0.2" stop-color="#9D9355"/>
<stop offset="1" stop-color="#9D9355" stop-opacity="0"/>
</radialGradient>
<radialGradient id="paint4_radial_91_329" cx="0" cy="0" r="1" gradientUnits="userSpaceOnUse" gradientTransform="translate(1607.32 212.94) scale(28.941 25)">
<stop offset="0.1" stop-color="white"/>
<stop offset="0.2" stop-color="#9D9355"/>
<stop offset="1" stop-color="#9D9355" stop-opacity="0"/>
</radialGradient>
</defs>
</svg>
