<svg width="27" height="17" viewBox="0 0 27 17" fill="none" xmlns="http://www.w3.org/2000/svg">
<path d="M10.0278 4.84798V12.0853M5.86111 8.46662H14.1944M19.0556 6.05419L22.6344 4.18929C23.736 3.61527 24.2868 3.32826 24.74 3.36495C25.1351 3.39694 25.4957 3.57422 25.7306 3.85205C26 4.17067 26 4.72851 26 5.84419V11.0891C26 12.2047 26 12.7626 25.7306 13.0812C25.4957 13.359 25.1351 13.5363 24.74 13.5683C24.2868 13.605 23.736 13.318 22.6344 12.744L19.0556 10.879M5.44444 15.7039H14.6111C16.1668 15.7039 16.9447 15.7039 17.5389 15.4409C18.0615 15.2097 18.4865 14.8406 18.7528 14.3867C19.0556 13.8707 19.0556 13.1951 19.0556 11.844V5.08922C19.0556 3.73814 19.0556 3.06259 18.7528 2.54655C18.4865 2.09261 18.0615 1.72356 17.5389 1.49228C16.9447 1.22934 16.1668 1.22934 14.6111 1.22934H5.44444C3.88875 1.22934 3.11089 1.22934 2.51669 1.49228C1.99401 1.72356 1.56907 2.09261 1.30276 2.54655C1 3.06259 1 3.73813 1 5.08922V11.844C1 13.1951 1 13.8707 1.30276 14.3867C1.56907 14.8406 1.99401 15.2097 2.51669 15.4409C3.11089 15.7039 3.88874 15.7039 5.44444 15.7039Z" stroke="white" stroke-width="2" stroke-linecap="round" stroke-linejoin="round"/>
</svg>
